<svg xmlns="http://www.w3.org/2000/svg">
    <defs>
        <symbol id="corner" viewBox="0 0 16 16">
           <path stroke="#fff" stroke-linecap="round" stroke-linejoin="round" d="M6.5 1.5v13" />
           <path d="M15 5.273 7 2v6l8-2.727Z" fill="#F66" />
        </symbol>
        <symbol id="score" viewBox="0 0 16 16">
            <path d="M1.705 7a6.274 6.274 0 0 0 1.935 4.542A6.297 6.297 0 0 0 8 13.296a6.296 6.296 0 0 0 4.973-10.16A6.287 6.287 0 0 0 8 .704 6.284 6.284 0 0 0 3.066 3.09 6.257 6.257 0 0 0 1.705 7Z" fill="#fff" />
            <path d="m8.692 4.814 2.984-.506-.033-.192-2.959.502-2.259-.21.796-3.51-.19-.043-.845 3.726 2.506.233Zm-4.743 6.909h.194V10.02l1.136-3.4 2.053.42 2.63 2.994.145-.128-2.672-3.044-2.285-.467-1.201 3.593v1.734Zm.504-6.718-1.885-.288-.03.193 1.886.287.03-.192Zm6.867 5.347 1.013-1.082.87-2.759.035-1.194-.194-.005-.035 1.18-.849 2.677-.982 1.05.143.133Z" fill="#C4C7D4" />
            <path d="m9.113 12.276.014-.194-3.273-.187-1.894-.33-.033.193 1.903.33 3.283.188Zm2.934-9.093.16-.11-.462-.665L9.572.995 8.041.933l-.008.194 1.478.06 2.096 1.364.44.632Z" fill="#C4C7D4" />
            <path d="m5.389 1.269.032.061 1.547.119.029-.004c.276-.038 2.46-.339 2.544-.353.09-.015-.49-.268-.49-.268L9.01.786a6.284 6.284 0 0 0-3.623.483Zm6.099 2.968 1.616 2.271 1.076-.717a6.273 6.273 0 0 0-1.208-2.654l-.001-.001c-.551-.285-1.259-.638-1.294-.656h-.001l-.188 1.757Zm-9.77 2.325.95-1.75.396-1.723a6.258 6.258 0 0 0-1.346 3.473Zm.777 3.028.09.626v.001a6.327 6.327 0 0 0 2.604 2.418l.657-.643-1.802-1.987-1.549-.416Zm10.12 1.432-.37-1.802-2.518.6-1.04 2.38 1.803.554 2.125-1.732ZM6.597 3.207l2.3 1.473-.929 2.94H4.841l-.644-2.575 2.4-1.838Z" fill="#2D3146" />
            <path d="M15 12c0 .796-.738 1.559-2.05 2.121C11.637 14.684 9.857 15 8 15c-1.857 0-3.637-.316-4.95-.879C1.738 13.56 1 12.796 1 12" stroke="#fff" />
        </symbol>
        <symbol id="yellow-card" viewBox="0 0 16 16">
            <rect x="4" y="2" width="8" height="12" rx="1" fill="#FFB822" />
        </symbol>
        <symbol id="red-card" viewBox="0 0 16 16">
            <rect x="4" y="2" width="8" height="12" rx="1" fill="#F66" />
        </symbol>
        <symbol id="overview" viewBox="0 0 32 32">
            <path d="M29 18H19a1 1 0 0 0-1 1v8c0 .6.4 1 1 1h10c.6 0 1-.4 1-1v-8c0-.6-.4-1-1-1zm-1 8h-8v-6h8zM13 4H3a1 1 0 0 0-1 1v8c0 .6.4 1 1 1h10c.6 0 1-.4 1-1V5c0-.6-.4-1-1-1zm-1 8H4V6h8zm18-8v2H18V4zM18 8h12v2H18zm0 4h12v2H18zM2 18h12v2H2zm0 4h12v2H2zm0 4h12v2H2z" />
        </symbol>
        <symbol id="h2h" viewBox="0 0 32 32">
            <path d="M32 21.4V30h-2v-8.6c0-.2 0-.4-.2-.5l-4.3-2.2c-.6-.3-1.2-.9-1.4-1.6 0-.8.4-1.5 1-1.9 1-1 1-4 1-5.5 0-1.4-.4-3.7-3.3-3.7s-3.3 2.3-3.3 3.7c0 1.6 0 4.4 1.1 5.5.6.4 1 1 1 1.8v.1c-.3.7-.8 1.3-1.5 1.6l-3.6 2.2a1 1 0 0 1-1 0l-3.7-2.3c-.6-.2-1.1-.8-1.3-1.5 0-.8.3-1.5.9-1.9 1.1-1 1.1-4 1.1-5.5 0-1.4-.4-3.7-3.3-3.7S5.8 8.3 5.8 9.7c0 1.6 0 4.4 1.2 5.5a2.2 2.2 0 0 1 .8 1.8c-.2.7-.7 1.3-1.3 1.6L2.1 21a.8.8 0 0 0-.1.5V30H0v-8.6c0-1 .5-1.8 1.2-2.2l4.3-2.3.2-.1-.1-.2C4 15.1 3.8 12.3 3.8 9.7v-.5A5.2 5.2 0 0 1 9.2 4h.2a5.2 5.2 0 0 1 5.1 5.8c0 2.5-.1 5.3-1.7 6.8l-.2.2h.2l3.2 2 3.1-1.9.3-.1-.2-.2c-1.6-1.5-1.7-4.3-1.7-6.9v-.5A5.2 5.2 0 0 1 22.7 4h.2a5.2 5.2 0 0 1 5.1 5.8c0 2.5 0 5.3-1.7 6.8l-.1.2h.2l4.3 2.4c.7.4 1.2 1.2 1.2 2.2zM4 26h10v-2H4zm0 4h10v-2H4zm14-4h10v-2H18zm0 4h10v-2H18z" />
        </symbol>
        <symbol id="tables" viewBox="0 0 32 32">
            <path d="M29 4H3a1 1 0 0 0-1 1v4c0 .6.4 1 1 1h26c.6 0 1-.4 1-1V5c0-.6-.4-1-1-1zM4 6h4v2H4zm24 2H10V6h18zm1 5H3a1 1 0 0 0-1 1v4c0 .6.4 1 1 1h26c.6 0 1-.4 1-1v-4c0-.6-.4-1-1-1zM4 15h4v2H4zm24 2H10v-2h18zm1 5H3a1 1 0 0 0-1 1v4c0 .6.4 1 1 1h26c.6 0 1-.4 1-1v-4c0-.6-.4-1-1-1zM4 24h4v2H4zm24 2H10v-2h18z" />
        </symbol>
        <symbol id="teams" viewBox="0 0 32 32">
            <path d="M30.9 8.5a1 1 0 0 0-.6-.5l-7-2H21a1 1 0 0 0-.9.5L19.4 8h-6.8L12 6.6A1 1 0 0 0 11 6H9a1 1 0 0 0-.3 0l-7 2A1 1 0 0 0 1 9.3l2 6.3a1 1 0 0 0 1.3.7l3.7-1V29c0 .6.4 1 1 1h14c.6 0 1-.4 1-1V15.3l3.7 1h.3a1 1 0 0 0 1-.7l2-6.3a1 1 0 0 0-.1-.8zm-3.6 5.6l-4-1H23a1 1 0 0 0-1 .9v14H10V14a1 1 0 0 0-1.3-1l-4 1.1-1.4-4.4L9 8h1.3l.7 1.4c.2.4.5.6.9.6h8c.4 0 .7-.2.9-.5l.7-1.5H23l5.8 1.7zM2.3 6l-.6-2 7-2H13c.4 0 .7.2.9.5l.7 1.5h2.8l.7-1.4c.2-.4.5-.6.9-.6h4.3l7 2-.6 2L23 4h-3.3L19 5.4a1 1 0 0 1-.9.6h-4a1 1 0 0 1-.9-.5L12.4 4H9zM18 14a2 2 0 1 0 2 2 2 2 0 0 0-2-2zm0 2z" />
        </symbol>
        <symbol id="archive" viewBox="0 0 32 32">
            <path d="M29 28H3a1 1 0 0 1-1-1V5c0-.6.4-1 1-1h10c.3 0 .7.2.8.5L15.6 8H29c.6 0 1 .4 1 1v18c0 .6-.4 1-1 1zM4 26h24V10H15a1 1 0 0 1-.9-.5L12.3 6H4z" />
        </symbol>
    </defs>
</svg>
